<mxfile host="app.diagrams.net" modified="2023-06-29T15:29:44.783Z" agent="Mozilla/5.0 (Macintosh; Intel Mac OS X 10_15_7) AppleWebKit/537.36 (KHTML, like Gecko) Chrome/114.0.0.0 Safari/537.36" version="21.5.2" etag="FE5O22X6h7ajsNKqgh0O" type="github">
  <diagram name="Page-1" id="CxdetQx4C3n51C6PAXa7">
    <mxGraphModel>
      <root>
        <mxCell id="0" />
        <mxCell id="1" parent="0" />
      </root>
    </mxGraphModel>
  </diagram>
</mxfile>
